<svg version="1.1" id="Слой_1" xmlns="http://www.w3.org/2000/svg" x="0" y="0" viewBox="0 0 157.6 45.7" xml:space="preserve"><style>.st0{fill:#fff}.st1{fill:red}.st4{fill:none}</style><g id="Layer_1"><path class="st0" d="M13.6 14.3c.1-4.4-2.3-10.6 3.5-10 4.6-.3 9.5-.6 14.2-.6s9.8-.2 13.8.9c3.8 1.3 1.9 7.7 2 12 0 0 .6-2.4 1-6.4.2-1.8.7-4.8-1.9-6.4-2.4-1.4-5.5-1.4-8.5-1.7-6.3-.5-12.6-.4-18.9.2-1.6.1-3.1.4-4.6.9-1.9.4-2.4 2.7-2.2 3.9.1 2.5.7 4.9 1.6 7.2z"/><path class="st0" d="M16 10.9c-1.6-5 7.4-3.2 12-4.1 2.7-.2 5.5-.3 8.2-.3 2.8.4 5.5-.7 5.9 2.3l.9 1.9.5.9.3.5.1.2.1.1c-1 1.4 1.3-1.8 1.1-1.5l-4.1-.6c-2.8-.4-5.5-.7-8.3-.9-5.5-.3-11.2-.3-16.7 1.5-.1-.6 11.9-1.8 25.6 1.3l2.6.5.6.1c.4-.6-.9 1.2.9-1.2v-.1l-.1-.1-.2-.4-.6-1.2c-1.1-1.3-.5-3.8-3.5-4.9-4-.9-7.6-.4-11.2-.2S23.1 5.5 20 6c-3.5 0-5.8 3-4 4.9zM9.7 42.3c.5 1.6-4.8 2.5-5.5 1.1-1.5-2-1.9-5.3-2.1-8.2-.4-5.4-.5-14.3 5.1-13 0 .2-.9-1.3-3.3-.1-2.5.9-3.4 5.1-3.7 9s-.3 8.5 1.7 12.4c2.9 5 9.5.4 7.8-1.2z"/><path class="st0" d="M3.2 22.2c1.9-.7 4-.3 5.6 1.1 1.1 1.3 1.5 3.8 1.8 5.9.4 4.2.6 9.4-.8 12.7.1.7 2.2-3.9 2.2-9.8 0-2.9 0-6.1-1.6-9-2.3-2.8-6-2.2-7.2-.9zm4.4 2s-.6 14 1.6 19.1"/><path class="st0" d="M9.8 43c-1.9-5.8-1.6-12.5-1.5-18.8 0-.3-3.8 14.1 1.5 18.8zm1.6-25.6c-.1 5.1.1 10.1.6 15.2.3 2.5.6 5.3 2.3 7.6 1.8 3 5.6 2.2 7.5 2.7l.4.1h.2c.6 1.3-.8-1.7-.7-1.4l.3-.3c1.9.1.8.3 1 0-.1-.6-.2-1.1-.2-1.7-.1-1.2-.1-2.5-.2-3.7l-.3-7.5c-.1-2.5-.1-5 0-7.4.1-2.7.2-4.6 2.5-5.4 4-1.8 9.9-2.4 13.1.4 2.3 3 1.6 9.2 1.8 13.8-.1 4.7 2.3 11.5-3.3 11.3-4.7.9-9.9 1.1-13.8-1.6-.2-.1 4 3.6 12.6 2.5 1.9-.5 4.9-.1 5.5-2.8.7-2.4.3-5.1.2-7.9s.1-5.7 0-8.8c-.3-2.7.3-7-3.3-8.9-3-1.7-6.7-1.7-10-1.1-1.8.3-3.5 1-5 1.9-2 .9-2.2 3.7-2.4 5.1-.3 6.7-.1 13.4.5 20.1.1.9.2 1.8.5 2.6.2 0 0 1.3 1.7.7l.3-.4c-.2-.6.6 1-.5-1.3h-.1l-.3-.1-1.1-.1c-1.7-.2-3.3 0-4.3-.6-2.3-1.5-3-4.7-3.4-7.5-1.1-5.6-1.5-10.9-2.1-15.5zm35 8.1c-3.8-2.5-2.7-5.8.2-5.8 2.8-.5 3 5.6.4 4.7-.1-.3.6.8 1.9.3s2.7-3.5.8-6-7.4-2-8.1 1.9c-.4 1.5.2 3 1.3 4 1.1.6 2.3.5 3.5.9z"/><path class="st0" d="M15.7 25c-2 1-4-4.4-1.1-5.1 2.3-1.3 5.4 2.7 1.7 4 .8-.2 1.6-.5 2.2-.9 1.4-.8 1-4.1-1.8-5.5-3-1.5-7.1 1.9-6.2 5.3.6 3.2 4.9 4.5 5.2 2.2zM51 29.2c.3-2 .8-3.9 1.4-5.8 1.1 1.3 1.5 4.9 1.6 7.5.5 4.7-1.8 15.4-3.1 8-.4 1-.2 2.2.5 3 2.5 1.7 3.5-3.9 4.2-7 .5-3.8.8-8-1.1-12-.1-1.1-3-2.1-3.5-.4-.3.9-.5 1.8-.6 2.8-.2 1.6.3 4.2.6 3.9z"/><path class="st0" d="M52.2 22.2c7.6-3.2 8.2 5.8 8.4 11.4 0 3-.6 6-1.8 8.7-1.1 1.5-6.2 1.6-6.3 0 .1-.2-.5 1.2 2.4 1.8 1.6.3 3.2.1 4.5-.7 1.4-1.4 1.9-3.4 2.5-5.4 1.1-4.3.9-8.8-.5-12.9-.8-2-2-4.2-4.2-4.6-2.1.1-3.3 1.1-5 1.7zm-2.5-2.7c.7-1.1 1.4-2.1 2.1-3.2l.8-1.8.4-.9.2-.4c-.8-.5 1.7 1-1.7-1.1l-.1.1-.2.2c-.9 1-1.6 2-2.3 2.9-.3.4-.7.9-1.1 1.3l-.6.5-.1.1-.1.1 1.2 1.6.5-.7-.6.6-1-1.3h.2l.3-.1.6-.2c1.2-.6 2.4-1.4 3.3-2.4l.9-.8.4-.4.1-.1v-.1c.4.2-3.1-1.9-1.6-1l-.1.3c-.4.7-.7 1.4-.9 2.2-.6 1.5-.8 3.1-.6 4.6zm-36.8-.7c-1.6-2-3.7-4-3.8-4.8-2.1-.3 1.9 3.7 3.2 4.2.2-.1-1.7-2-2.6-5.1-.3-.7-1.2-.9-1.8-.6-.1 0-.2.1-.2.1-.5.5-.7 1.3-.5 2 .3.9.8 1.6 1.5 2.2 1.3 1.3 2.5 1.5 4.2 2zm.6-.8c-.4-2.9 2.8-4.2 5.6-4.3 2.9-.4 5.8-.6 8.7-.6-2.3-.4-4.6-.6-6.9-.6-2-.1-4 .3-5.9 1.1-1.8 1-2.3 3.4-1.5 4.4z"/><path class="st0" d="M15.6 17.8c.6-3.8 6.3-2.7 9.9-3.5-1.6-.2-3.2-.4-4.7-.4-2.4-.7-6.8 1.7-5.2 3.9zm19.2-4.9c2.7.2 5.3.6 7.9 1.1 1.3.2 2.5.6 3.7 1.2.9.2.8 2.3.7 2.7-.2 1 2.1-3.4-2.4-4.3-3.3-1.2-7.4-1.6-9.9-.7z"/><path class="st0" d="M38.9 14.7c3.4-.3 7.3 1.9 7.4 4.1-.3.8.8-1-1-3.2-1.8-1.7-4.9-2-6.4-.9zM9.1 38.6c6.3 4.4 15.9 6.2 23.4 5.1l12-.7h1.8c1.5-.5.6-.3 1-.5l.5-.5 2.2-2 4.4-4.1s-1.8 1.1-4.5 3.2c-1.5.6-2.7 3.2-5 2.6-2.2-.1-4.7-.1-7.2-.1-10.3.6-21.4 0-28.6-3z"/><path class="st0" d="M25.1 39.5c-.2-3.4-1-10.9-.5-15.9-.1-5.9 8-7.5 11.7-4.5 1.4 4.4 1.3 11.1 1.3 16.5 0 1.3-.2 2.7-.5 4-1.1.3-2.2.6-3.3.7-2.5.3-5 .4-7.6.2-1.1-.6 2 .8 6.9.4 1.3 0 2.6-.2 3.9-.4 1.5-.3 1.2-2.5 1.6-3.9.4-3.6.4-7.1.3-10.6-.1-1.9-.2-3.8-.4-5.7 0-2.3-2.6-4.1-4.5-4.3-3.9-.8-9.2.5-10.5 5-1.4 7.3.7 15.7 1.6 18.5z"/><path class="st0" d="M48.3 25c.2 2.9.2 5.8 0 8.6-.3 2.7-.5 6.3-2.9 6.3-5.5 1.2-11.6 2.5-17 2.1-.2.2 5.9 1.5 13.5.4 2-.4 3.6-.2 6.1-1.4 1.9-2 1.9-4.2 2.1-6.1.3-3.4-.4-6.8-1.8-9.9z"/><path class="st1" d="M65 30.3l91.5.2c-.1 0-63.6-3.8-91.5-.2z"/><path d="M65.7 28.3l91.5.2c-.1 0-64.1-2.5-91.5-.2z" fill="#fcfcfc"/><path class="st0" d="M71.8 35h.7l2 7.3h-.6l-.6-2.3H71l-.6 2.3h-.6l2-7.3zm-.6 4.5h2l-1-3.7-1 3.7zm6.7 2.9h-1.6V35H78c.5 0 1 .1 1.3.4.4.3.6.9.6 1.4 0 .3-.1.7-.2 1-.2.3-.4.5-.8.7.4.1.7.3.9.6.2.3.3.7.3 1.1 0 .7-.3 1.3-.8 1.8-.4.3-.9.4-1.4.4zm-1-6.8v2.7h.9c.4 0 .7-.1 1-.3.3-.3.5-.7.4-1.1 0-.4-.1-.8-.5-1-.3-.2-.7-.2-1-.2l-.8-.1zm0 3.2v3h1c.4 0 .8-.1 1.1-.3.3-.3.5-.8.4-1.2.1-.4-.1-.9-.5-1.2-.3-.2-.6-.3-1-.3h-1zm6.6-3.2h-1.7V35h4v.6h-1.7v6.8h-.6v-6.8zm6.2 6.9c-.6 0-1.2-.2-1.5-.7-.5-1-.7-2.1-.6-3.2-.1-1.1.1-2.1.6-3.1.3-.5.9-.8 1.5-.8.8 0 1.6.5 1.8 1.3.3.8.4 1.7.3 2.6 0 .6 0 1.2-.1 1.8-.1.5-.3 1-.6 1.4-.3.6-.8.8-1.4.7zm0-.5c.6 0 1.1-.4 1.3-1 .2-.8.3-1.5.3-2.3 0-.7-.1-1.5-.3-2.2-.1-.6-.7-1.1-1.3-1.1-.6 0-1.1.4-1.3 1-.2.7-.3 1.5-.3 2.2-.1.9.1 1.8.4 2.7.3.5.8.7 1.2.7zm5.1.4h-.6V35h1.1l1.7 6.4 1.8-6.4h1v7.3h-.6v-6.7l-1.8 6.7h-.7l-1.8-6.7-.1 6.8zm8.9-7.4h.7l2 7.3h-.7l-.6-2.3h-2.2l-.6 2.3h-.6l2-7.3zm-.6 4.5h2l-1-3.7-1 3.7zm8.6.4h.6c0 .7-.1 1.3-.5 1.9-.4.5-1 .8-1.6.8-.5 0-1.1-.2-1.4-.6-.3-.4-.5-.9-.6-1.5-.1-.7-.1-1.3-.1-2 0-.8.1-1.6.3-2.4.4-1 1.5-1.5 2.5-1.1.3.1.6.3.8.5.4.5.5 1 .5 1.6h-.6c0-.4-.1-.8-.3-1.2-.2-.4-.6-.6-1.1-.5-.4 0-.9.2-1.1.6-.3.8-.5 1.7-.4 2.6-.1.9.1 1.9.4 2.7.2.4.7.6 1.1.6.5 0 .9-.3 1.1-.7.3-.4.4-.8.4-1.3zm4.1-4.3h-1.7V35h4v.6h-1.7v6.8h-.6v-6.8zm7.6 6.8H120V35h3.3v.6h-2.7v2.7h2.4v.6h-2.4v3h2.8v.5zm2.7 0h-.6V35h1.7c.5 0 1 .1 1.5.4.4.4.7 1 .6 1.6 0 .6-.1 1.1-.5 1.5-.4.4-1 .6-1.5.5h-1.1l-.1 3.4zm0-6.8v2.9h.8c.4 0 .9-.1 1.2-.3.3-.3.5-.7.4-1.2 0-.4-.1-.8-.4-1.1-.3-.2-.8-.4-1.2-.3h-.8zm8.8 4.3h.6c0 .7-.1 1.3-.5 1.9-.4.5-1 .8-1.6.8-.5 0-1-.2-1.4-.5-.3-.4-.5-.9-.6-1.5-.1-.7-.1-1.3-.1-2 0-.8.1-1.6.3-2.4.4-1 1.5-1.5 2.5-1.1.3.1.6.3.8.5.4.5.5 1 .5 1.6h-.6c0-.4-.1-.8-.3-1.2-.2-.4-.6-.6-1.1-.5-.4 0-.9.2-1.1.6-.3.8-.5 1.7-.4 2.6-.1.9.1 1.9.4 2.7.2.4.7.6 1.1.6.5 0 .9-.3 1.1-.7.3-.4.4-.9.4-1.4zm3.5 2.5h-.6V35h.6v3.7l2.7-3.7h.7l-2.2 3 2.3 4.4h-.7l-2-3.9-.8 1.1v2.8zm6.7-7.4h.7l2 7.3h-.6l-.6-2.3h-2.3l-.6 2.3h-.6l2-7.3zm-.6 4.5h2l-1-3.7-1 3.7zm8.7 2.9h-.6v-3.2h-1l-1.7 3.2h-.8l1.8-3.3c-.4-.1-.8-.3-1.1-.7-.3-.4-.4-.9-.4-1.3 0-.6.2-1.2.6-1.6.4-.3.9-.5 1.4-.5h1.8v7.4zm-.7-3.8v-3h-1c-.7-.1-1.4.4-1.5 1.1v.4c0 .4.1.9.4 1.2.4.2.8.3 1.2.3h.9z"/><path d="M77.7 8.1c0-.7-.1-1.5-.2-2.2-.5-1.2-3-3.1-6.5-3.1-4.2-.2-7.8 3-8 7.2v.5c.1 5.4 4.5 9.7 9.9 9.7h.1c2.2.1 4.4-.4 6.3-1.4l-.3 1c-.6.5-3.3 1.6-7.5 1.6-2.1 0-4.2-.4-6.1-1.2-3.5-1.7-5.5-4.8-5.5-8.2 0-3.2 1.5-6.2 4.2-8 2.4-1.6 5.2-2.4 8-2.2 1.9 0 3.8.3 5.6.7l.6-2.4.6-.1c-.4 2.7-.6 5.5-.6 8.3l-.6-.2zm14.4 12.5c.9-.1 1.8-.2 2.7-.4-.5-1.4-2.4-7.1-2.8-7.9-.9 0-5.2.2-6.2.4-.8 2.5-1.4 5-1.9 7.5.8.2 1.5.3 2.3.4l.1.6c-.8-.1-3.3-.1-4-.1s-2.5 0-3.1.1l.1-.6c.8-.1 1.5-.2 2.3-.4 1-1.7 6.3-16.1 6.7-17.1-.7-.2-1.4-.3-2.1-.3v-.7c.8.1 3 .1 3.5.1 1.1 0 3.8 0 4.6-.1l-.1.6c-.7.1-1.3.2-2 .3.3 1.2 1.8 5.4 2.8 8.2 1.1 3 2.3 6 3.7 8.9.8.2 1.6.3 2.4.4l.1.6c-.3-.1-3-.1-4.4-.1-.8 0-3.8 0-4.5.1l-.2-.5zm-3-17c-.9 2.4-2.7 7-2.9 7.9l5.6.1c-.6-1.8-2.3-6.6-2.7-8zm15.5 6.1c0-1 0-6.1-.1-6.6-.5-.1-2.3-.3-2.9-.3l-.1-.6h5.8c2.6 0 5.7 0 7.6.8 1.4.4 2.3 1.6 2.3 3 0 1.7-1.7 3.9-3.8 5.1 2.1 3.8 4.6 7.3 7.4 10.7l-1.2.2c-1.9-.9-9-9.1-9.4-9.7-1 .1-2.1.2-2.6.2v.7c0 1.8.1 5.9.1 7.1.9.2 1.9.3 2.8.4l.1.6c-.6-.1-3.4-.1-4.6-.1s-3.9 0-4.5.1l.1-.6c1-.1 1.9-.2 2.8-.4.1-.8.1-6 .1-8.9l.1-1.7zm3 1.8c1.1 0 2.2-.1 3.3-.5 1.8-.6 3-2.4 3-4.3 0-1.7-1.6-3.8-6.2-3.8-.1 1.1-.1 5.9-.1 7.8v.8z" fill="#181a19"/><path class="st0" d="M123.2 14.1c0-1.6-.1-4.5-.1-5-.3-.1-1.4-.2-1.9-.3l-.1-.4 1.6.1h1.6c.6 0 4.8 0 5.3-.1.1-.3.1-.6.1-.8l.4-.1c-.1.4-.3 3.2-.4 3.7l-.4-.1V9.8c-.3-.5-3.1-.8-4-.8 0 .3-.1 3.7-.1 4.8v.4c1.2 0 2.5-.1 3.7-.3.1-.3.1-.5.2-.8h.4c-.1.3-.4 2.8-.5 3.4l-.3-.1v-1.2c-1.1-.3-2.3-.5-3.5-.4v.2c0 1.1.1 5 .1 5.5 1.5.1 2.9-.1 4.3-.6.2-.6.3-1.2.4-1.6l.4-.1c-.1.5-.5 3.2-.6 4.1l-.4-.1v-1.1c-.5-.1-4.5-.2-5.6-.2-.6 0-2 0-2.7.1l.1-.4c.6 0 1.2-.1 1.8-.3.1-.3.1-3.6.1-5.6l.1-.6zm14.5-.5c0-1.3 0-4-.1-4.4-2.9 0-4.1.4-4.6.8-.2.6-.3 1.1-.4 1.7l-.4.1c.1-.9.3-3.1.3-4.5l.4.1c0 .2 0 .8.1 1.2.3.1 3.4.2 5.8.2 2.6 0 5.7-.1 6-.2.1-.2.2-.8.3-1.1l.4-.1c-.1.4-.5 4.1-.6 4.6l-.4-.1c0-.7.1-1.4 0-1.9-.4-.4-2.9-.8-4.7-.8-.1.5-.1 3.1-.1 4.4v.8c0 1.6 0 4.6.1 6 .3.1 2 .2 2.3.3l.1.4c-.4 0-2.5-.1-3.5-.1-.8 0-3 0-3.5.1l.1-.4c.4 0 1.9-.2 2.3-.3.1-1.4.1-4.5.1-6v-.8zm14 7.1c.6 0 1.2-.1 1.8-.3-.3-.9-1.6-4.7-1.9-5.2-.6 0-3.5.1-4.1.2-.5 1.6-.9 3.3-1.3 5l1.5.3.1.4c-.6 0-2.2-.1-2.7-.1s-1.7 0-2.1.1v-.4c.5-.1 1-.1 1.5-.3.6-1.1 4.2-10.8 4.5-11.4-.5-.1-.9-.2-1.4-.2v-.4c.5 0 2 .1 2.3.1.8 0 2.6 0 3.1-.1v.4c-.5.1-.9.1-1.4.2.2.8 1.2 3.6 1.9 5.5.7 2 1.5 4 2.4 6 .5.1 1 .2 1.6.3l.1.4c-.2 0-2-.1-3-.1-.5 0-2.5 0-3 .1l.1-.5zm-2-11.4c-.6 1.6-1.7 4.7-1.9 5.3l3.8.1c-.5-1.2-1.6-4.4-1.9-5.4z"/><path class="st4" d="M24.3 39.6V17.7"/><path class="st0" d="M24.7 39.6V17.7s-1.8 15.3 0 21.9z"/><path class="st4" d="M26 40.7V16.8"/><path class="st0" d="M26.5 40.7V16.8s-2 16.7 0 23.9z"/><path class="st4" d="M28.1 40.7V16.8"/><path class="st0" d="M28.6 40.7V16.8s-2 16.7 0 23.9z"/><path class="st4" d="M30.3 40.7V16.8"/><path class="st0" d="M30.8 40.7V16.8s-1.9 16.7 0 23.9z"/><path class="st4" d="M32.5 40.7V16.8"/><path class="st0" d="M33 40.7V16.8s-2 16.7 0 23.9z"/><path class="st4" d="M34.6 40.7V16.8"/><path class="st0" d="M35.1 40.7V16.8s-1.9 16.7 0 23.9z"/><path class="st4" d="M36.8 39.6V17.5"/><path class="st0" d="M37.3 39.6V17.5s-1.9 15.5 0 22.1z"/><path class="st4" d="M39.2 38.7V18.3"/><path class="st0" d="M39.6 38.7V18.3s-1.8 14.3 0 20.4z"/><path class="st1" d="M77.7 8.1c0-.7-.1-1.5-.2-2.2-.5-1.2-3-3.1-6.5-3.1-4.2-.2-7.8 3-8 7.2v.5c.1 5.4 4.5 9.7 9.9 9.7h.1c2.2.1 4.4-.4 6.3-1.4l-.3 1c-.6.5-3.3 1.6-7.5 1.6-2.1 0-4.2-.4-6.1-1.2-3.5-1.7-5.5-4.8-5.5-8.2 0-3.2 1.5-6.2 4.2-8 2.4-1.6 5.2-2.4 8-2.2 1.9 0 3.8.3 5.6.7l.6-2.4.6-.1c-.4 2.7-.6 5.5-.6 8.3l-.6-.2zm14.4 12.5c.9-.1 1.8-.2 2.7-.4-.5-1.4-2.4-7.1-2.8-7.9-.9 0-5.2.2-6.2.4-.8 2.5-1.4 5-1.9 7.5.8.2 1.5.3 2.3.4l.1.6c-.8-.1-3.3-.1-4-.1s-2.5 0-3.1.1l.1-.6c.8-.1 1.5-.2 2.3-.4 1-1.7 6.3-16.1 6.7-17.1-.7-.2-1.4-.3-2.1-.3v-.7c.8.1 3 .1 3.5.1 1.1 0 3.8 0 4.6-.1l-.1.6c-.7.1-1.3.2-2 .3.3 1.2 1.8 5.4 2.8 8.2 1.1 3 2.3 6 3.7 8.9.8.2 1.6.3 2.4.4l.1.6c-.3-.1-3-.1-4.4-.1-.8 0-3.8 0-4.5.1l-.2-.5zm-3-17c-.9 2.4-2.7 7-2.9 7.9l5.6.1c-.6-1.8-2.3-6.6-2.7-8zm15.5 6.1c0-1 0-6.1-.1-6.6-.5-.1-2.3-.3-2.9-.3l-.1-.6h5.8c2.6 0 5.7 0 7.6.8 1.4.4 2.3 1.6 2.3 3 0 1.7-1.7 3.9-3.8 5.1 2.1 3.8 4.6 7.3 7.4 10.7l-1.2.2c-1.9-.9-9-9.1-9.4-9.7-1 .1-2.1.2-2.6.2v.7c0 1.8.1 5.9.1 7.1.9.2 1.9.3 2.8.4l.1.6c-.6-.1-3.4-.1-4.6-.1s-3.9 0-4.5.1l.1-.6c1-.1 1.9-.2 2.8-.4.1-.8.1-6 .1-8.9l.1-1.7zm3 1.8c1.1 0 2.2-.1 3.3-.5 1.8-.6 3-2.4 3-4.3 0-1.7-1.6-3.8-6.2-3.8-.1 1.1-.1 5.9-.1 7.8v.8z"/></g></svg>