<?xml version="1.0" encoding="utf-8"?>
<!-- Generator: Adobe Illustrator 23.0.5, SVG Export Plug-In . SVG Version: 6.00 Build 0)  -->
<svg version="1.1" id="Слой_1" xmlns="http://www.w3.org/2000/svg" xmlns:xlink="http://www.w3.org/1999/xlink" x="0px" y="0px"
	 viewBox="0 0 157.6 45.7" style="enable-background:new 0 0 157.6 45.7;" xml:space="preserve">
<style type="text/css">
	.st0{fill:#FFFFFF;}
	.st1{fill:#FF0000;}
	.st2{fill:#FCFCFC;}
	.st3{fill:#181A19;}
	.st4{fill:none;}
</style>
<title>Ресурс 1</title>
<g>
	<g id="Layer_1">
		<path class="st0" d="M13.6,14.3c0.1-4.4-2.3-10.6,3.5-10c4.6-0.3,9.5-0.6,14.2-0.6s9.8-0.2,13.8,0.9c3.8,1.3,1.9,7.7,2,12
			c0,0,0.6-2.4,1-6.4c0.2-1.8,0.7-4.8-1.9-6.4c-2.4-1.4-5.5-1.4-8.5-1.7c-6.3-0.5-12.6-0.4-18.9,0.2c-1.6,0.1-3.1,0.4-4.6,0.9
			c-1.9,0.4-2.4,2.7-2.2,3.9C12.1,9.6,12.7,12,13.6,14.3z"/>
		<path class="st0" d="M16,10.9c-1.6-5,7.4-3.2,12-4.1c2.7-0.2,5.5-0.3,8.2-0.3c2.8,0.4,5.5-0.7,5.9,2.3l0.9,1.9l0.5,0.9l0.3,0.5
			l0.1,0.2l0.1,0.1l0,0c-1,1.4,1.3-1.8,1.1-1.5l0,0L41,10.3c-2.8-0.4-5.5-0.7-8.3-0.9C27.2,9.1,21.5,9.1,16,10.9
			c-0.1-0.6,11.9-1.8,25.6,1.3l2.6,0.5l0.6,0.1c0.4-0.6-0.9,1.2,0.9-1.2l0,0l0,0v-0.1l-0.1-0.1L45.4,11l-0.6-1.2
			c-1.1-1.3-0.5-3.8-3.5-4.9c-4-0.9-7.6-0.4-11.2-0.2S23.1,5.5,20,6C16.5,6,14.2,9,16,10.9z"/>
		<path class="st0" d="M9.7,42.3c0.5,1.6-4.8,2.5-5.5,1.1c-1.5-2-1.9-5.3-2.1-8.2c-0.4-5.4-0.5-14.3,5.1-13c0,0.2-0.9-1.3-3.3-0.1
			c-2.5,0.9-3.4,5.1-3.7,9s-0.3,8.5,1.7,12.4C4.8,48.5,11.4,43.9,9.7,42.3z"/>
		<path class="st0" d="M3.2,22.2c1.9-0.7,4-0.3,5.6,1.1c1.1,1.3,1.5,3.8,1.8,5.9c0.4,4.2,0.6,9.4-0.8,12.7c0.1,0.7,2.2-3.9,2.2-9.8
			c0-2.9,0-6.1-1.6-9C8.1,20.3,4.4,20.9,3.2,22.2z"/>
		<path class="st0" d="M7.6,24.2c0,0-0.6,14,1.6,19.1"/>
		<path class="st0" d="M9.8,43c-1.9-5.8-1.6-12.5-1.5-18.8C8.3,23.9,4.5,38.3,9.8,43z"/>
		<path class="st0" d="M11.4,17.4c-0.1,5.1,0.1,10.1,0.6,15.2c0.3,2.5,0.6,5.3,2.3,7.6c1.8,3,5.6,2.2,7.5,2.7l0.4,0.1h0.1h0.1
			c0.6,1.3-0.8-1.7-0.7-1.4c0.1-0.1,0.2-0.2,0.3-0.3c1.9,0.1,0.8,0.3,1,0c-0.1-0.6-0.2-1.1-0.2-1.7c-0.1-1.2-0.1-2.5-0.2-3.7
			l-0.3-7.5c-0.1-2.5-0.1-5,0-7.4c0.1-2.7,0.2-4.6,2.5-5.4c4-1.8,9.9-2.4,13.1,0.4c2.3,3,1.6,9.2,1.8,13.8
			c-0.1,4.7,2.3,11.5-3.3,11.3c-4.7,0.9-9.9,1.1-13.8-1.6c-0.2-0.1,4,3.6,12.6,2.5c1.9-0.5,4.9-0.1,5.5-2.8c0.7-2.4,0.3-5.1,0.2-7.9
			s0.1-5.7,0-8.8c-0.3-2.7,0.3-7-3.3-8.9c-3-1.7-6.7-1.7-10-1.1c-1.8,0.3-3.5,1-5,1.9c-2,0.9-2.2,3.7-2.4,5.1
			c-0.3,6.7-0.1,13.4,0.5,20.1c0.1,0.9,0.2,1.8,0.5,2.6c0.2,0,0,1.3,1.7,0.7l0.3-0.4c-0.2-0.6,0.6,1-0.5-1.3h-0.1l-0.3-0.1L21.2,41
			c-1.7-0.2-3.3,0-4.3-0.6c-2.3-1.5-3-4.7-3.4-7.5C12.4,27.3,12,22,11.4,17.4z"/>
		<path class="st0" d="M46.4,25.5c-3.8-2.5-2.7-5.8,0.2-5.8c2.8-0.5,3,5.6,0.4,4.7c-0.1-0.3,0.6,0.8,1.9,0.3s2.7-3.5,0.8-6
			s-7.4-2-8.1,1.9c-0.4,1.5,0.2,3,1.3,4C44,25.2,45.2,25.1,46.4,25.5z"/>
		<path class="st0" d="M15.7,25c-2,1-4-4.4-1.1-5.1c2.3-1.3,5.4,2.7,1.7,4c0.8-0.2,1.6-0.5,2.2-0.9c1.4-0.8,1-4.1-1.8-5.5
			c-3-1.5-7.1,1.9-6.2,5.3C11.1,26,15.4,27.3,15.7,25z"/>
		<path class="st0" d="M51,29.2c0.3-2,0.8-3.9,1.4-5.8c1.1,1.3,1.5,4.9,1.6,7.5c0.5,4.7-1.8,15.4-3.1,8c-0.4,1-0.2,2.2,0.5,3
			c2.5,1.7,3.5-3.9,4.2-7c0.5-3.8,0.8-8-1.1-12c-0.1-1.1-3-2.1-3.5-0.4c-0.3,0.9-0.5,1.8-0.6,2.8C50.2,26.9,50.7,29.5,51,29.2z"/>
		<path class="st0" d="M52.2,22.2c7.6-3.2,8.2,5.8,8.4,11.4c0,3-0.6,6-1.8,8.7c-1.1,1.5-6.2,1.6-6.3,0c0.1-0.2-0.5,1.2,2.4,1.8
			c1.6,0.3,3.2,0.1,4.5-0.7c1.4-1.4,1.9-3.4,2.5-5.4c1.1-4.3,0.9-8.8-0.5-12.9c-0.8-2-2-4.2-4.2-4.6C55.1,20.6,53.9,21.6,52.2,22.2z
			"/>
		<path class="st0" d="M49.7,19.5c0.7-1.1,1.4-2.1,2.1-3.2l0.8-1.8l0.4-0.9l0.2-0.4l0,0l0,0c-0.8-0.5,1.7,1-1.7-1.1l0,0l0,0l0,0
			l-0.1,0.1l-0.2,0.2c-0.9,1-1.6,2-2.3,2.9c-0.3,0.4-0.7,0.9-1.1,1.3l-0.6,0.5l-0.1,0.1L47,17.3l0,0l0,0l1.2,1.6l0,0l0.5-0.7
			c-0.2,0.2-0.4,0.4-0.6,0.6l0,0l-1-1.3h0.1h0.1l0.3-0.1l0.6-0.2c1.2-0.6,2.4-1.4,3.3-2.4l0.9-0.8l0.4-0.4l0.1-0.1v-0.1l0,0l0,0
			c0.4,0.2-3.1-1.9-1.6-1l0,0l-0.1,0.3c-0.4,0.7-0.7,1.4-0.9,2.2C49.7,16.4,49.5,18,49.7,19.5z"/>
		<path class="st0" d="M12.9,18.8c-1.6-2-3.7-4-3.8-4.8c-2.1-0.3,1.9,3.7,3.2,4.2c0.2-0.1-1.7-2-2.6-5.1c-0.3-0.7-1.2-0.9-1.8-0.6
			c-0.1,0-0.2,0.1-0.2,0.1c-0.5,0.5-0.7,1.3-0.5,2c0.3,0.9,0.8,1.6,1.5,2.2C10,18.1,11.2,18.3,12.9,18.8z"/>
		<path class="st0" d="M13.5,18c-0.4-2.9,2.8-4.2,5.6-4.3c2.9-0.4,5.8-0.6,8.7-0.6c-2.3-0.4-4.6-0.6-6.9-0.6c-2-0.1-4,0.3-5.9,1.1
			C13.2,14.6,12.7,17,13.5,18z"/>
		<path class="st0" d="M15.6,17.8c0.6-3.8,6.3-2.7,9.9-3.5c-1.6-0.2-3.2-0.4-4.7-0.4C18.4,13.2,14,15.6,15.6,17.8z"/>
		<path class="st0" d="M34.8,12.9c2.7,0.2,5.3,0.6,7.9,1.1c1.3,0.2,2.5,0.6,3.7,1.2c0.9,0.2,0.8,2.3,0.7,2.7c-0.2,1,2.1-3.4-2.4-4.3
			C41.4,12.4,37.3,12,34.8,12.9z"/>
		<path class="st0" d="M38.9,14.7c3.4-0.3,7.3,1.9,7.4,4.1c-0.3,0.8,0.8-1-1-3.2C43.5,13.9,40.4,13.6,38.9,14.7z"/>
		<path class="st0" d="M9.1,38.6c6.3,4.4,15.9,6.2,23.4,5.1l12-0.7c0.5,0,0.9,0,1.4,0h0.4c1.5-0.5,0.6-0.3,1-0.5l0.5-0.5l2.2-2
			l4.4-4.1c0,0-1.8,1.1-4.5,3.2c-1.5,0.6-2.7,3.2-5,2.6c-2.2-0.1-4.7-0.1-7.2-0.1C27.4,42.2,16.3,41.6,9.1,38.6z"/>
		<path class="st0" d="M25.1,39.5c-0.2-3.4-1-10.9-0.5-15.9c-0.1-5.9,8-7.5,11.7-4.5c1.4,4.4,1.3,11.1,1.3,16.5c0,1.3-0.2,2.7-0.5,4
			c-1.1,0.3-2.2,0.6-3.3,0.7c-2.5,0.3-5,0.4-7.6,0.2c-1.1-0.6,2,0.8,6.9,0.4c1.3,0,2.6-0.2,3.9-0.4c1.5-0.3,1.2-2.5,1.6-3.9
			C39,33,39,29.5,38.9,26c-0.1-1.9-0.2-3.8-0.4-5.7c0-2.3-2.6-4.1-4.5-4.3c-3.9-0.8-9.2,0.5-10.5,5C22.1,28.3,24.2,36.7,25.1,39.5z"
			/>
		<path class="st0" d="M48.3,25c0.2,2.9,0.2,5.8,0,8.6c-0.3,2.7-0.5,6.3-2.9,6.3c-5.5,1.2-11.6,2.5-17,2.1
			c-0.2,0.2,5.9,1.5,13.5,0.4c2-0.4,3.6-0.2,6.1-1.4c1.9-2,1.9-4.2,2.1-6.1C50.4,31.5,49.7,28.1,48.3,25z"/>
		<path class="st1" d="M65,30.3l91.5,0.2C156.4,30.5,92.9,26.7,65,30.3z"/>
		<path class="st2" d="M65.7,28.3l91.5,0.2C157.1,28.5,93.1,26,65.7,28.3z"/>
		<path class="st0" d="M71.8,35h0.7l2,7.3h-0.6l-0.6-2.3h-2.3l-0.6,2.3h-0.6L71.8,35z M71.2,39.5h2l-1-3.7L71.2,39.5z"/>
		<path class="st0" d="M77.9,42.4h-1.6V35h1.7c0.5,0,1,0.1,1.3,0.4c0.4,0.3,0.6,0.9,0.6,1.4c0,0.3-0.1,0.7-0.2,1
			c-0.2,0.3-0.4,0.5-0.8,0.7c0.4,0.1,0.7,0.3,0.9,0.6c0.2,0.3,0.3,0.7,0.3,1.1c0,0.7-0.3,1.3-0.8,1.8C78.9,42.3,78.4,42.4,77.9,42.4
			z M76.9,35.6v2.7h0.9c0.4,0,0.7-0.1,1-0.3c0.3-0.3,0.5-0.7,0.4-1.1c0-0.4-0.1-0.8-0.5-1c-0.3-0.2-0.7-0.2-1-0.2L76.9,35.6z
			 M76.9,38.8v3h1c0.4,0,0.8-0.1,1.1-0.3c0.3-0.3,0.5-0.8,0.4-1.2c0.1-0.4-0.1-0.9-0.5-1.2c-0.3-0.2-0.6-0.3-1-0.3H76.9z"/>
		<path class="st0" d="M83.5,35.6h-1.7V35h4v0.6h-1.7v6.8h-0.6V35.6z"/>
		<path class="st0" d="M89.7,42.5c-0.6,0-1.2-0.2-1.5-0.7c-0.5-1-0.7-2.1-0.6-3.2c-0.1-1.1,0.1-2.1,0.6-3.1c0.3-0.5,0.9-0.8,1.5-0.8
			c0.8,0,1.6,0.5,1.8,1.3c0.3,0.8,0.4,1.7,0.3,2.6c0,0.6,0,1.2-0.1,1.8c-0.1,0.5-0.3,1-0.6,1.4C90.8,42.4,90.3,42.6,89.7,42.5z
			 M89.7,42c0.6,0,1.1-0.4,1.3-1c0.2-0.8,0.3-1.5,0.3-2.3c0-0.7-0.1-1.5-0.3-2.2c-0.1-0.6-0.7-1.1-1.3-1.1c-0.6,0-1.1,0.4-1.3,1
			c-0.2,0.7-0.3,1.5-0.3,2.2c-0.1,0.9,0.1,1.8,0.4,2.7C88.8,41.8,89.3,42,89.7,42L89.7,42z"/>
		<path class="st0" d="M94.8,42.4h-0.6V35h1.1l1.7,6.4l1.8-6.4h1v7.3h-0.6v-6.7l-1.8,6.7h-0.7l-1.8-6.7L94.8,42.4z"/>
		<path class="st0" d="M103.7,35h0.7l2,7.3h-0.7l-0.6-2.3h-2.2l-0.6,2.3h-0.6L103.7,35z M103.1,39.5h2l-1-3.7L103.1,39.5z"/>
		<path class="st0" d="M111.7,39.9h0.6c0,0.7-0.1,1.3-0.5,1.9c-0.4,0.5-1,0.8-1.6,0.8c-0.5,0-1.1-0.2-1.4-0.6
			c-0.3-0.4-0.5-0.9-0.6-1.5c-0.1-0.7-0.1-1.3-0.1-2c0-0.8,0.1-1.6,0.3-2.4c0.4-1,1.5-1.5,2.5-1.1c0.3,0.1,0.6,0.3,0.8,0.5
			c0.4,0.5,0.5,1,0.5,1.6h-0.6c0-0.4-0.1-0.8-0.3-1.2c-0.2-0.4-0.6-0.6-1.1-0.5c-0.4,0-0.9,0.2-1.1,0.6c-0.3,0.8-0.5,1.7-0.4,2.6
			c-0.1,0.9,0.1,1.9,0.4,2.7c0.2,0.4,0.7,0.6,1.1,0.6c0.5,0,0.9-0.3,1.1-0.7C111.6,40.8,111.7,40.4,111.7,39.9z"/>
		<path class="st0" d="M115.8,35.6h-1.7V35h4v0.6h-1.7v6.8h-0.6L115.8,35.6z"/>
		<path class="st0" d="M123.4,42.4H120V35h3.3v0.6h-2.7v2.7h2.4v0.6h-2.4v3h2.8L123.4,42.4z"/>
		<path class="st0" d="M126.1,42.4h-0.6V35h1.7c0.5,0,1,0.1,1.5,0.4c0.4,0.4,0.7,1,0.6,1.6c0,0.6-0.1,1.1-0.5,1.5
			c-0.4,0.4-1,0.6-1.5,0.5h-1.1L126.1,42.4z M126.1,35.6v2.9h0.8c0.4,0,0.9-0.1,1.2-0.3c0.3-0.3,0.5-0.7,0.4-1.2
			c0-0.4-0.1-0.8-0.4-1.1c-0.3-0.2-0.8-0.4-1.2-0.3H126.1z"/>
		<path class="st0" d="M134.9,39.9h0.6c0,0.7-0.1,1.3-0.5,1.9c-0.4,0.5-1,0.8-1.6,0.8c-0.5,0-1-0.2-1.4-0.5
			c-0.3-0.4-0.5-0.9-0.6-1.5c-0.1-0.7-0.1-1.3-0.1-2c0-0.8,0.1-1.6,0.3-2.4c0.4-1,1.5-1.5,2.5-1.1c0.3,0.1,0.6,0.3,0.8,0.5
			c0.4,0.5,0.5,1,0.5,1.6h-0.6c0-0.4-0.1-0.8-0.3-1.2c-0.2-0.4-0.6-0.6-1.1-0.5c-0.4,0-0.9,0.2-1.1,0.6c-0.3,0.8-0.5,1.7-0.4,2.6
			c-0.1,0.9,0.1,1.9,0.4,2.7c0.2,0.4,0.7,0.6,1.1,0.6c0.5,0,0.9-0.3,1.1-0.7C134.8,40.9,134.9,40.4,134.9,39.9z"/>
		<path class="st0" d="M138.4,42.4h-0.6V35h0.6v3.7l2.7-3.7h0.7l-2.2,3l2.3,4.4h-0.7l-2-3.9l-0.8,1.1L138.4,42.4z"/>
		<path class="st0" d="M145.1,35h0.7l2,7.3h-0.6l-0.6-2.3h-2.3l-0.6,2.3h-0.6L145.1,35z M144.5,39.5h2l-1-3.7L144.5,39.5z"/>
		<path class="st0" d="M153.2,42.4h-0.6v-3.2h-1l-1.7,3.2h-0.8l1.8-3.3c-0.4-0.1-0.8-0.3-1.1-0.7c-0.3-0.4-0.4-0.9-0.4-1.3
			c0-0.6,0.2-1.2,0.6-1.6c0.4-0.3,0.9-0.5,1.4-0.5h1.8L153.2,42.4z M152.5,38.6v-3h-1c-0.7-0.1-1.4,0.4-1.5,1.1c0,0.1,0,0.3,0,0.4
			c0,0.4,0.1,0.9,0.4,1.2c0.4,0.2,0.8,0.3,1.2,0.3L152.5,38.6z"/>
		<path class="st3" d="M77.7,8.1c0-0.7-0.1-1.5-0.2-2.2c-0.5-1.2-3-3.1-6.5-3.1c-4.2-0.2-7.8,3-8,7.2c0,0.2,0,0.3,0,0.5
			c0.1,5.4,4.5,9.7,9.9,9.7c0,0,0,0,0.1,0c2.2,0.1,4.4-0.4,6.3-1.4L79,19.8c-0.6,0.5-3.3,1.6-7.5,1.6c-2.1,0-4.2-0.4-6.1-1.2
			c-3.5-1.7-5.5-4.8-5.5-8.2c0-3.2,1.5-6.2,4.2-8c2.4-1.6,5.2-2.4,8-2.2c1.9,0,3.8,0.3,5.6,0.7c0.2-0.8,0.4-1.6,0.6-2.4L78.9,0
			c-0.4,2.7-0.6,5.5-0.6,8.3L77.7,8.1z"/>
		<path class="st3" d="M92.1,20.6c0.9-0.1,1.8-0.2,2.7-0.4c-0.5-1.4-2.4-7.1-2.8-7.9c-0.9,0-5.2,0.2-6.2,0.4c-0.8,2.5-1.4,5-1.9,7.5
			c0.8,0.2,1.5,0.3,2.3,0.4l0.1,0.6c-0.8-0.1-3.3-0.1-4-0.1s-2.5,0-3.1,0.1l0.1-0.6c0.8-0.1,1.5-0.2,2.3-0.4
			c1-1.7,6.3-16.1,6.7-17.1c-0.7-0.2-1.4-0.3-2.1-0.3V2.1c0.8,0.1,3,0.1,3.5,0.1c1.1,0,3.8,0,4.6-0.1l-0.1,0.6
			c-0.7,0.1-1.3,0.2-2,0.3c0.3,1.2,1.8,5.4,2.8,8.2c1.1,3,2.3,6,3.7,8.9c0.8,0.2,1.6,0.3,2.4,0.4l0.1,0.6c-0.3-0.1-3-0.1-4.4-0.1
			c-0.8,0-3.8,0-4.5,0.1L92.1,20.6z M89.1,3.6L89.1,3.6c-0.9,2.4-2.7,7-2.9,7.9l5.6,0.1C91.2,9.8,89.5,5,89.1,3.6L89.1,3.6z"/>
		<path class="st3" d="M104.6,9.7c0-1,0-6.1-0.1-6.6c-0.5-0.1-2.3-0.3-2.9-0.3l-0.1-0.6h5.8c2.6,0,5.7,0,7.6,0.8
			c1.4,0.4,2.3,1.6,2.3,3c0,1.7-1.7,3.9-3.8,5.1c2.1,3.8,4.6,7.3,7.4,10.7l-1.2,0.2c-1.9-0.9-9-9.1-9.4-9.7c-1,0.1-2.1,0.2-2.6,0.2
			v0.7c0,1.8,0.1,5.9,0.1,7.1c0.9,0.2,1.9,0.3,2.8,0.4l0.1,0.6c-0.6-0.1-3.4-0.1-4.6-0.1s-3.9,0-4.5,0.1l0.1-0.6
			c1-0.1,1.9-0.2,2.8-0.4c0.1-0.8,0.1-6,0.1-8.9L104.6,9.7z M107.6,11.5c1.1,0,2.2-0.1,3.3-0.5c1.8-0.6,3-2.4,3-4.3
			c0-1.7-1.6-3.8-6.2-3.8c-0.1,1.1-0.1,5.9-0.1,7.8L107.6,11.5z"/>
		<path class="st0" d="M123.2,14.1c0-1.6-0.1-4.5-0.1-5c-0.3-0.1-1.4-0.2-1.9-0.3l-0.1-0.4l1.6,0.1h1.6c0.6,0,4.8,0,5.3-0.1
			c0.1-0.3,0.1-0.6,0.1-0.8l0.4-0.1c-0.1,0.4-0.3,3.2-0.4,3.7l-0.4-0.1c0-0.1,0-0.9,0-1.3c-0.3-0.5-3.1-0.8-4-0.8
			c0,0.3-0.1,3.7-0.1,4.8v0.4c1.2,0,2.5-0.1,3.7-0.3c0.1-0.3,0.1-0.5,0.2-0.8h0.4c-0.1,0.3-0.4,2.8-0.5,3.4l-0.3-0.1
			c0-0.4,0-0.8,0-1.2c-1.1-0.3-2.3-0.5-3.5-0.4V15c0,1.1,0.1,5,0.1,5.5c1.5,0.1,2.9-0.1,4.3-0.6c0.2-0.6,0.3-1.2,0.4-1.6l0.4-0.1
			c-0.1,0.5-0.5,3.2-0.6,4.1l-0.4-0.1c0-0.5,0-0.8,0-1.1c-0.5-0.1-4.5-0.2-5.6-0.2c-0.6,0-2,0-2.7,0.1l0.1-0.4
			c0.6,0,1.2-0.1,1.8-0.3c0.1-0.3,0.1-3.6,0.1-5.6L123.2,14.1z"/>
		<path class="st0" d="M137.7,13.6c0-1.3,0-4-0.1-4.4c-2.9,0-4.1,0.4-4.6,0.8c-0.2,0.6-0.3,1.1-0.4,1.7l-0.4,0.1
			c0.1-0.9,0.3-3.1,0.3-4.5l0.4,0.1c0,0.2,0,0.8,0.1,1.2c0.3,0.1,3.4,0.2,5.8,0.2c2.6,0,5.7-0.1,6-0.2c0.1-0.2,0.2-0.8,0.3-1.1
			l0.4-0.1c-0.1,0.4-0.5,4.1-0.6,4.6l-0.4-0.1c0-0.7,0.1-1.4,0-1.9c-0.4-0.4-2.9-0.8-4.7-0.8c-0.1,0.5-0.1,3.1-0.1,4.4v0.8
			c0,1.6,0,4.6,0.1,6c0.3,0.1,2,0.2,2.3,0.3l0.1,0.4c-0.4,0-2.5-0.1-3.5-0.1c-0.8,0-3,0-3.5,0.1l0.1-0.4c0.4,0,1.9-0.2,2.3-0.3
			c0.1-1.4,0.1-4.5,0.1-6L137.7,13.6z"/>
		<path class="st0" d="M151.7,20.7c0.6,0,1.2-0.1,1.8-0.3c-0.3-0.9-1.6-4.7-1.9-5.2c-0.6,0-3.5,0.1-4.1,0.2c-0.5,1.6-0.9,3.3-1.3,5
			c0.5,0.1,1,0.2,1.5,0.3l0.1,0.4c-0.6,0-2.2-0.1-2.7-0.1s-1.7,0-2.1,0.1v-0.4c0.5-0.1,1-0.1,1.5-0.3c0.6-1.1,4.2-10.8,4.5-11.4
			c-0.5-0.1-0.9-0.2-1.4-0.2V8.4c0.5,0,2,0.1,2.3,0.1c0.8,0,2.6,0,3.1-0.1L153,8.8c-0.5,0.1-0.9,0.1-1.4,0.2
			c0.2,0.8,1.2,3.6,1.9,5.5c0.7,2,1.5,4,2.4,6c0.5,0.1,1,0.2,1.6,0.3l0.1,0.4c-0.2,0-2-0.1-3-0.1c-0.5,0-2.5,0-3,0.1L151.7,20.7z
			 M149.7,9.3L149.7,9.3c-0.6,1.6-1.7,4.7-1.9,5.3l3.8,0.1C151.1,13.5,150,10.3,149.7,9.3L149.7,9.3z"/>
		<line class="st4" x1="24.3" y1="39.6" x2="24.3" y2="17.7"/>
		<path class="st0" d="M24.7,39.6V17.7C24.7,17.7,22.9,33,24.7,39.6z"/>
		<line class="st4" x1="26" y1="40.7" x2="26" y2="16.8"/>
		<path class="st0" d="M26.5,40.7V16.8C26.5,16.8,24.5,33.5,26.5,40.7z"/>
		<line class="st4" x1="28.1" y1="40.7" x2="28.1" y2="16.8"/>
		<path class="st0" d="M28.6,40.7V16.8C28.6,16.8,26.6,33.5,28.6,40.7z"/>
		<line class="st4" x1="30.3" y1="40.7" x2="30.3" y2="16.8"/>
		<path class="st0" d="M30.8,40.7V16.8C30.8,16.8,28.9,33.5,30.8,40.7z"/>
		<line class="st4" x1="32.5" y1="40.7" x2="32.5" y2="16.8"/>
		<path class="st0" d="M33,40.7V16.8C33,16.8,31,33.5,33,40.7z"/>
		<line class="st4" x1="34.6" y1="40.7" x2="34.6" y2="16.8"/>
		<path class="st0" d="M35.1,40.7V16.8C35.1,16.8,33.2,33.5,35.1,40.7z"/>
		<line class="st4" x1="36.8" y1="39.6" x2="36.8" y2="17.5"/>
		<path class="st0" d="M37.3,39.6V17.5C37.3,17.5,35.4,33,37.3,39.6z"/>
		<line class="st4" x1="39.2" y1="38.7" x2="39.2" y2="18.3"/>
		<path class="st0" d="M39.6,38.7V18.3C39.6,18.3,37.8,32.6,39.6,38.7z"/>
		<path class="st1" d="M77.7,8.1c0-0.7-0.1-1.5-0.2-2.2c-0.5-1.2-3-3.1-6.5-3.1c-4.2-0.2-7.8,3-8,7.2c0,0.2,0,0.3,0,0.5
			c0.1,5.4,4.5,9.7,9.9,9.7c0,0,0,0,0.1,0c2.2,0.1,4.4-0.4,6.3-1.4L79,19.8c-0.6,0.5-3.3,1.6-7.5,1.6c-2.1,0-4.2-0.4-6.1-1.2
			c-3.5-1.7-5.5-4.8-5.5-8.2c0-3.2,1.5-6.2,4.2-8c2.4-1.6,5.2-2.4,8-2.2c1.9,0,3.8,0.3,5.6,0.7c0.2-0.8,0.4-1.6,0.6-2.4L78.9,0
			c-0.4,2.7-0.6,5.5-0.6,8.3L77.7,8.1z"/>
		<path class="st1" d="M92.1,20.6c0.9-0.1,1.8-0.2,2.7-0.4c-0.5-1.4-2.4-7.1-2.8-7.9c-0.9,0-5.2,0.2-6.2,0.4c-0.8,2.5-1.4,5-1.9,7.5
			c0.8,0.2,1.5,0.3,2.3,0.4l0.1,0.6c-0.8-0.1-3.3-0.1-4-0.1s-2.5,0-3.1,0.1l0.1-0.6c0.8-0.1,1.5-0.2,2.3-0.4
			c1-1.7,6.3-16.1,6.7-17.1c-0.7-0.2-1.4-0.3-2.1-0.3V2.1c0.8,0.1,3,0.1,3.5,0.1c1.1,0,3.8,0,4.6-0.1l-0.1,0.6
			c-0.7,0.1-1.3,0.2-2,0.3c0.3,1.2,1.8,5.4,2.8,8.2c1.1,3,2.3,6,3.7,8.9c0.8,0.2,1.6,0.3,2.4,0.4l0.1,0.6c-0.3-0.1-3-0.1-4.4-0.1
			c-0.8,0-3.8,0-4.5,0.1L92.1,20.6z M89.1,3.6L89.1,3.6c-0.9,2.4-2.7,7-2.9,7.9l5.6,0.1C91.2,9.8,89.5,5,89.1,3.6L89.1,3.6z"/>
		<path class="st1" d="M104.6,9.7c0-1,0-6.1-0.1-6.6c-0.5-0.1-2.3-0.3-2.9-0.3l-0.1-0.6h5.8c2.6,0,5.7,0,7.6,0.8
			c1.4,0.4,2.3,1.6,2.3,3c0,1.7-1.7,3.9-3.8,5.1c2.1,3.8,4.6,7.3,7.4,10.7l-1.2,0.2c-1.9-0.9-9-9.1-9.4-9.7c-1,0.1-2.1,0.2-2.6,0.2
			v0.7c0,1.8,0.1,5.9,0.1,7.1c0.9,0.2,1.9,0.3,2.8,0.4l0.1,0.6c-0.6-0.1-3.4-0.1-4.6-0.1s-3.9,0-4.5,0.1l0.1-0.6
			c1-0.1,1.9-0.2,2.8-0.4c0.1-0.8,0.1-6,0.1-8.9L104.6,9.7z M107.6,11.5c1.1,0,2.2-0.1,3.3-0.5c1.8-0.6,3-2.4,3-4.3
			c0-1.7-1.6-3.8-6.2-3.8c-0.1,1.1-0.1,5.9-0.1,7.8L107.6,11.5z"/>
	</g>
</g>
</svg>
