<svg xmlns="http://www.w3.org/2000/svg" viewBox="0 0 157.61 45.74"><defs><style>.cls-1{fill:#201600}.cls-2{fill:#6a2900}</style></defs><g id="Слой_2" data-name="Слой 2"><g id="Layer_1" data-name="Layer 1"><path class="cls-1" d="M13.62 14.35c.1-4.44-2.27-10.6 3.52-10 4.65-.34 9.49-.61 14.18-.63s9.8-.19 13.81.86c3.84 1.32 1.93 7.7 1.95 12 0 0 .56-2.41 1.05-6.41.17-1.83.69-4.76-1.86-6.36-2.44-1.44-5.5-1.36-8.51-1.72a109.86 109.86 0 00-18.93.2 18.45 18.45 0 00-4.62.91c-1.89.39-2.37 2.71-2.19 3.91a22.22 22.22 0 001.6 7.24z"/><path class="cls-1" d="M16 10.89c-1.64-5 7.44-3.24 12-4.11 2.74-.17 5.47-.31 8.18-.3 2.8.45 5.54-.68 5.93 2.34l.93 1.89.49.93.25.47.12.23.07.12c-1 1.37 1.35-1.84 1.1-1.51L41 10.31c-2.75-.4-5.51-.7-8.29-.87-5.55-.3-11.22-.36-16.76 1.35 0-.47 12-1.74 25.63 1.36l2.58.53.64.15c.4-.55-.86 1.23.91-1.24v-.07l-.07-.15-.24-.37-.59-1.2c-1.14-1.3-.49-3.8-3.49-4.89-4-.88-7.62-.45-11.22-.24S23.13 5.48 20 6c-3.47 0-5.83 3-4 4.89zM9.66 42.28c.47 1.62-4.75 2.45-5.54 1.08-1.49-2-1.9-5.29-2.12-8.22-.41-5.39-.55-14.34 5.12-13 0 .18-.92-1.31-3.3-.1-2.49.89-3.44 5.15-3.73 9s-.35 8.46 1.74 12.42c2.96 5.03 9.56.41 7.83-1.18z"/><path class="cls-1" d="M3.19 22.22a5.58 5.58 0 015.56 1.08c1.15 1.32 1.48 3.83 1.76 5.93.38 4.19.56 9.41-.8 12.71.06.73 2.22-3.92 2.22-9.78 0-2.9 0-6.15-1.62-9-2.19-2.81-5.89-2.3-7.12-.94zm4.4 1.95S7 38.21 9.15 43.3"/><path class="cls-1" d="M9.8 43c-1.88-5.79-1.6-12.5-1.5-18.8-.01-.32-3.8 14.07 1.5 18.8zm1.63-25.56A128.19 128.19 0 0012 32.6c.33 2.46.58 5.26 2.25 7.63 1.84 3 5.63 2.21 7.46 2.73l.43.08h.18c.62 1.26-.81-1.7-.66-1.41a.62.62 0 01.31-.31c1.88.14.8.3 1 0a14 14 0 01-.24-1.72c-.14-1.19-.15-2.45-.22-3.68l-.29-7.52c-.08-2.49-.11-5 0-7.43.14-2.71.2-4.61 2.51-5.4 4-1.82 9.88-2.36 13.12.41 2.28 3 1.57 9.15 1.84 13.83-.06 4.75 2.35 11.49-3.26 11.28-4.71.93-9.94 1.09-13.75-1.57-.17-.06 4 3.61 12.6 2.47 1.93-.45 4.93-.06 5.5-2.83.73-2.37.29-5.12.18-7.86s.14-5.71 0-8.75c-.29-2.68.26-7-3.29-8.89-3.02-1.66-6.67-1.74-10-1.11a14.11 14.11 0 00-5 1.91c-2 .92-2.24 3.65-2.36 5.08a150 150 0 00.49 20.08 11.08 11.08 0 00.5 2.63c.17 0 0 1.31 1.73.69l.31-.36c-.23-.57.65 1-.51-1.33h-.08l-.31-.06L21.2 41c-1.68-.22-3.29 0-4.34-.59-2.26-1.45-3-4.71-3.44-7.45-.97-5.7-1.42-10.96-1.99-15.52zm34.99 8.04c-3.81-2.54-2.71-5.78.19-5.75 2.77-.45 3 5.6.42 4.71-.06-.26.59.8 1.87.25s2.66-3.45.78-6.05-7.39-2-8.06 1.85a4 4 0 001.32 4c1.06.67 2.21.62 3.48.99z"/><path class="cls-1" d="M15.67 25c-2 1-4-4.44-1.05-5.09 2.3-1.28 5.43 2.66 1.74 4A6.16 6.16 0 0018.6 23c1.37-.75 1-4.12-1.82-5.49-3-1.47-7.06 1.9-6.16 5.32.43 3.17 4.76 4.45 5.05 2.17zM51 29.23a39.91 39.91 0 011.38-5.76C53.45 24.73 53.9 28.38 54 31c.46 4.69-1.75 15.41-3.1 8a2.87 2.87 0 00.53 3c2.48 1.72 3.53-3.89 4.16-7 .47-3.8.75-8-1.13-12-.09-1.14-3-2.14-3.5-.37a8.43 8.43 0 00-.58 2.76c-.2 1.49.3 4.07.62 3.84z"/><path class="cls-1" d="M52.23 22.22c7.58-3.19 8.17 5.84 8.4 11.44a20.52 20.52 0 01-1.81 8.72c-1.11 1.53-6.16 1.57-6.33 0 .08-.21-.49 1.23 2.44 1.82a6.23 6.23 0 004.55-.74c1.44-1.36 1.89-3.37 2.49-5.37a23 23 0 00-.55-12.93c-.76-1.95-2-4.16-4.17-4.56-2.11.02-3.34 1-5.02 1.62zm-2.49-2.7c.69-1.07 1.43-2.11 2.07-3.21l.77-1.76.39-.87.19-.44c-.76-.47 1.71 1-1.71-1.06l-.08.1-.16.18c-.9 1-1.57 2-2.3 2.93a11.68 11.68 0 01-1.1 1.27l-.57.49-.14.12-.07.07 1.23 1.64.46-.73a3.64 3.64 0 01-.58.58l-1-1.32h.19l.25-.07.64-.22a12 12 0 003.34-2.36l.86-.76.41-.39.1-.09v-.05c.36.22-3.1-1.91-1.64-1l-.14.26a10.67 10.67 0 00-.89 2.17 9.18 9.18 0 00-.52 4.52zm-36.8-.74c-1.58-2-3.68-4-3.79-4.84C7 13.66 11 17.6 12.36 18.17c.17-.08-1.67-2-2.59-5.07a1.36 1.36 0 00-2.06-.45 2 2 0 00-.46 2 4.92 4.92 0 001.49 2.24c1.26 1.18 2.48 1.44 4.2 1.89zm.57-.78c-.37-2.87 2.79-4.16 5.62-4.31a75.16 75.16 0 018.74-.58 36.47 36.47 0 00-6.87-.55 14 14 0 00-5.86 1.06c-1.95.95-2.44 3.38-1.63 4.38z"/><path class="cls-1" d="M15.59 17.78c.6-3.83 6.3-2.68 9.86-3.48a33 33 0 00-4.74-.37c-2.33-.7-6.71 1.66-5.12 3.85zm19.26-4.86A72.7 72.7 0 0142.78 14a15.1 15.1 0 013.68 1.17c.92.19.8 2.25.66 2.74-.23 1 2.06-3.39-2.38-4.32-3.3-1.19-7.41-1.59-9.89-.67z"/><path class="cls-1" d="M38.88 14.72c3.37-.33 7.31 1.91 7.42 4.06-.29.82.82-1-1-3.16-1.83-1.75-4.91-2.03-6.42-.9zM9.1 38.58C15.45 43 25 44.78 32.53 43.7l12-.69h1.82c1.52-.54.58-.29 1-.48l.55-.51 2.2-2 4.42-4.06S52.73 37.1 50 39.12c-1.47.59-2.74 3.17-5 2.63-2.23-.06-4.68-.1-7.23-.1-10.4.53-21.43-.04-28.67-3.07z"/><path class="cls-1" d="M25.13 39.48c-.24-3.39-1-10.87-.47-15.94-.13-5.85 8.05-7.54 11.65-4.54 1.4 4.43 1.29 11.12 1.33 16.55a17.06 17.06 0 01-.47 4 16.3 16.3 0 01-3.35.67 43.6 43.6 0 01-7.56.22c-1.11-.57 2 .84 6.89.43a22 22 0 003.94-.44c1.55-.31 1.23-2.53 1.57-3.93a84.86 84.86 0 00.25-10.5c-.07-1.86-.15-3.75-.38-5.69 0-2.34-2.59-4.1-4.55-4.3-3.87-.82-9.23.54-10.48 5-1.41 7.29.66 15.71 1.63 18.47z"/><path class="cls-1" d="M48.28 25a63.89 63.89 0 010 8.64c-.35 2.65-.46 6.27-2.87 6.31-5.53 1.24-11.6 2.49-17 2.12-.22.18 5.93 1.46 13.52.42 2-.36 3.56-.19 6.09-1.43 1.87-2 1.88-4.15 2.09-6.09A20 20 0 0048.28 25z"/><path class="cls-2" d="M65.66 29.62l91.47.2s-64.06-2.95-91.47-.2z"/><path class="cls-1" d="M65.66 28.31l91.47.2s-64.06-2.46-91.47-.2zM71.85 35h.74l2 7.35h-.64l-.58-2.27h-2.26l-.6 2.27h-.62zm-.61 4.52h2l-1-3.72zm6.67 2.85h-1.6V35h1.74a2 2 0 011.34.42 1.7 1.7 0 01.61 1.4 2.12 2.12 0 01-.23 1 1.52 1.52 0 01-.77.66 1.47 1.47 0 01.9.63 2.06 2.06 0 01.3 1.14 2 2 0 01-.81 1.75 2.68 2.68 0 01-1.48.37zm-1-6.78v2.65h.91a1.65 1.65 0 001-.26 1.35 1.35 0 00.45-1.14 1.11 1.11 0 00-.47-1 2.07 2.07 0 00-1-.21zm0 3.22v3h1a1.61 1.61 0 001.1-.32 1.55 1.55 0 00.44-1.23 1.37 1.37 0 00-.45-1.19 1.87 1.87 0 00-1-.26zm6.57-3.22h-1.66V35h4v.57h-1.7v6.78h-.64zm6.24 6.96a1.78 1.78 0 01-1.53-.72 5.73 5.73 0 01-.62-3.15 5.67 5.67 0 01.61-3.08 1.76 1.76 0 011.54-.77 1.82 1.82 0 011.84 1.27 7.51 7.51 0 01.33 2.58 12.19 12.19 0 01-.11 1.83 2.83 2.83 0 01-.6 1.44 1.81 1.81 0 01-1.46.6zm0-.57A1.29 1.29 0 0091 41a7.59 7.59 0 00.26-2.31 7.42 7.42 0 00-.26-2.2 1.33 1.33 0 00-1.3-1.09 1.28 1.28 0 00-1.27 1 7.27 7.27 0 00-.25 2.24 5.74 5.74 0 00.43 2.69 1.19 1.19 0 001.11.67zm5.11.39h-.63V35h1.06L97 41.43 98.82 35h1v7.35h-.63v-6.7l-1.84 6.72h-.69l-1.84-6.72zm8.84-7.37h.73l2 7.35h-.65l-.58-2.27h-2.23l-.6 2.27h-.61zm-.61 4.52h2l-1-3.72zm8.64.36h.63a3.26 3.26 0 01-.48 1.87 1.8 1.8 0 01-1.59.8 1.77 1.77 0 01-1.42-.59 2.9 2.9 0 01-.58-1.48 11.75 11.75 0 01-.13-2 6.79 6.79 0 01.34-2.4 1.95 1.95 0 013.3-.58 2.51 2.51 0 01.51 1.62h-.64a2.09 2.09 0 00-.32-1.19 1.2 1.2 0 00-1.06-.54 1.15 1.15 0 00-1.06.64 5.56 5.56 0 00-.43 2.59 5.73 5.73 0 00.44 2.72 1.22 1.22 0 001.12.63 1.14 1.14 0 001.09-.71 3 3 0 00.28-1.38zm4.15-4.29h-1.67V35h4v.57h-1.67v6.78h-.64zm7.55 6.78H120V35h3.33v.57h-2.7v2.65h2.45v.57h-2.45v3h2.75zm2.71 0h-.63V35h1.67a2.41 2.41 0 011.48.41 1.89 1.89 0 01.63 1.56 2 2 0 01-.53 1.53 2.06 2.06 0 01-1.52.52h-1.1zm0-6.78v2.88h.83a2.2 2.2 0 001.24-.28 1.34 1.34 0 00.45-1.15 1.42 1.42 0 00-.4-1.12 1.84 1.84 0 00-1.19-.33zm8.74 4.29h.63a3.26 3.26 0 01-.48 1.87 1.8 1.8 0 01-1.59.8A1.77 1.77 0 01132 42a3 3 0 01-.58-1.48 11.75 11.75 0 01-.13-2 6.79 6.79 0 01.34-2.4 1.95 1.95 0 013.3-.58 2.51 2.51 0 01.51 1.62h-.64a2.09 2.09 0 00-.32-1.19 1.2 1.2 0 00-1.06-.54 1.15 1.15 0 00-1.06.64 5.56 5.56 0 00-.43 2.59 5.73 5.73 0 00.44 2.72 1.22 1.22 0 001.12.63 1.14 1.14 0 001.09-.71 3 3 0 00.27-1.42zm3.59 2.49h-.65V35h.65v3.7l2.67-3.7h.74l-2.18 3 2.33 4.37h-.69l-2-3.86-.82 1.07zm6.71-7.37h.73l2 7.35h-.65l-.58-2.27h-2.25l-.6 2.27h-.61zm-.61 4.52h2l-1-3.72zm8.64 2.85h-.63v-3.21h-1l-1.69 3.21h-.76l1.75-3.28a1.73 1.73 0 01-1.07-.66 2.16 2.16 0 01-.37-1.33 2.08 2.08 0 01.57-1.6 2 2 0 011.42-.48h1.79zm-.63-3.79v-3h-1a1.34 1.34 0 00-1.55 1.5 1.44 1.44 0 00.45 1.19 2 2 0 001.24.31z"/><path d="M77.69 8.1a20 20 0 00-.16-2.23c-.51-1.18-3-3.11-6.46-3.11a7.61 7.61 0 00-8 7.72 9.79 9.79 0 0010 9.65 12.81 12.81 0 006.35-1.44l-.38 1.15c-.61.51-3.32 1.61-7.53 1.61a15.23 15.23 0 01-6.08-1.18c-3.49-1.72-5.55-4.77-5.55-8.21a9.43 9.43 0 014.23-8 13.12 13.12 0 018-2.23 25 25 0 015.6.7 24.28 24.28 0 00.57-2.4l.61-.13a67.53 67.53 0 00-.59 8.28zm14.39 12.46a22.15 22.15 0 002.71-.37c-.49-1.4-2.39-7.08-2.82-7.86-.94 0-5.2.19-6.19.35a64.13 64.13 0 00-1.88 7.51 16.39 16.39 0 002.31.37l.1.57c-.83-.06-3.27-.11-4-.11s-2.5.05-3.11.11l.08-.57a20.82 20.82 0 002.3-.37c1-1.69 6.3-16.11 6.68-17.13a17.69 17.69 0 00-2.12-.35v-.57c.81.06 3 .11 3.49.11 1.12 0 3.8 0 4.58-.11l-.08.57a15.47 15.47 0 00-2 .35c.33 1.18 1.8 5.38 2.82 8.2a91.17 91.17 0 003.65 8.93c.77.16 1.55.27 2.36.37l.08.57c-.33-.06-3-.11-4.45-.11-.78 0-3.81.05-4.54.11zm-3-17H89c-.83 2.39-2.57 7-2.84 7.91l5.63.11c-.6-1.82-2.29-6.58-2.74-8.07zm15.51 6.15c0-1 0-6.12-.13-6.63-.46-.1-2.28-.27-2.87-.32l-.08-.56h5.79c2.55 0 5.74 0 7.56.75A3.23 3.23 0 01117.17 6c0 1.69-1.72 3.91-3.78 5.06a71.46 71.46 0 007.4 10.65l-1.18.19c-1.88-.86-9-9.09-9.44-9.66-1 .09-2.12.17-2.57.17v.69c0 1.75.05 5.87.13 7.11a28 28 0 002.82.37l.1.57c-.65-.08-3.38-.15-4.65-.15s-3.91.05-4.53.11l.11-.57a24.7 24.7 0 002.84-.37c.11-.78.13-6 .13-8.85zm3 1.84a9.31 9.31 0 003.27-.51 4.5 4.5 0 003-4.31c0-1.72-1.55-3.81-6.19-3.81-.08 1.1-.13 5.9-.13 7.8z" fill="#181a19"/><path class="cls-1" d="M123.22 14.06c0-1.61-.06-4.46-.13-5-.34-.07-1.43-.19-1.86-.25l-.07-.37 1.61.05h1.57c.58 0 4.78 0 5.27-.13a8.09 8.09 0 00.14-.84l.41-.07c-.09.38-.32 3.15-.36 3.71l-.39-.13V9.74c-.32-.52-3.08-.75-4-.75 0 .25-.12 3.71-.12 4.76v.36a17.78 17.78 0 003.7-.29 4.73 4.73 0 00.18-.77h.38c-.06.32-.38 2.77-.47 3.35l-.34-.15v-1.2a10.27 10.27 0 00-3.49-.39V15c0 1.09.07 5 .12 5.51a10.35 10.35 0 004.3-.61c.19-.63.28-1.18.39-1.57l.41-.11c-.12.52-.52 3.24-.59 4.13l-.37-.07v-1.09c-.51-.1-4.51-.19-5.63-.19-.61 0-2 0-2.72.07l.09-.38a12.42 12.42 0 001.84-.25c.07-.32.13-3.61.13-5.58zm14.49-.43c0-1.33 0-4-.09-4.39-2.86 0-4.15.45-4.63.75a12.25 12.25 0 00-.36 1.69l-.41.1c.07-.86.28-3.09.27-4.51l.41.07c0 .24 0 .79.1 1.17.29.05 3.37.18 5.79.18 2.59 0 5.69-.13 6-.18.08-.22.18-.77.26-1.11l.44-.07c-.1.41-.52 4.08-.57 4.61l-.41-.1c0-.72.05-1.45 0-1.85-.44-.36-2.93-.75-4.67-.75-.05.48-.09 3.1-.09 4.39v.8c0 1.58 0 4.6.09 6 .34.06 2 .22 2.31.25l.07.38c-.43 0-2.52-.07-3.51-.07-.8 0-3 0-3.47.07l.09-.38c.41 0 1.86-.19 2.29-.25.06-1.39.09-4.47.09-6zm14 7.08a12.4 12.4 0 001.8-.25c-.32-.93-1.59-4.72-1.87-5.24-.63 0-3.48.12-4.14.23a42.65 42.65 0 00-1.25 5 9.17 9.17 0 001.54.25l.07.38c-.56 0-2.18-.07-2.7-.07s-1.67 0-2.08.07v-.38a12.37 12.37 0 001.54-.25c.65-1.12 4.21-10.75 4.46-11.43a12.18 12.18 0 00-1.41-.24v-.37c.53 0 2 .07 2.32.07.76 0 2.55 0 3.06-.07l-.05.37a11 11 0 00-1.36.24c.22.78 1.2 3.59 1.88 5.47a61.45 61.45 0 002.43 6c.52.11 1 .18 1.58.25l.05.38c-.21 0-2-.07-3-.07-.52 0-2.54 0-3 .07zm-2-11.38c-.56 1.59-1.72 4.69-1.9 5.28l3.76.07c-.45-1.18-1.57-4.36-1.89-5.35zM24.3 39.58V17.69m.41 21.89V17.69s-1.85 15.31 0 21.89zm1.33 1.1V16.8m.43 23.88V16.8s-1.92 16.73 0 23.88zm1.66 0V16.8m.43 23.88V16.8s-1.92 16.73 0 23.88zm1.78 0V16.8m.43 23.88V16.8s-1.92 16.73 0 23.88zm1.78 0V16.8M33 40.68V16.8s-1.95 16.73 0 23.88zm1.64 0V16.8m.43 23.88V16.8s-1.92 16.73 0 23.88zm1.78-1.1V17.47m.41 22.11V17.47s-1.85 15.53 0 22.11zm1.92-.89V18.35m.39 20.34V18.35s-1.78 14.25 0 20.34z"/><path class="cls-2" d="M77.69 8.1a20 20 0 00-.16-2.23c-.51-1.18-3-3.11-6.46-3.11a7.61 7.61 0 00-8 7.72 9.79 9.79 0 0010 9.65 12.81 12.81 0 006.35-1.44l-.38 1.15c-.61.51-3.32 1.61-7.53 1.61a15.23 15.23 0 01-6.08-1.18c-3.49-1.72-5.55-4.77-5.55-8.21a9.43 9.43 0 014.23-8 13.12 13.12 0 018-2.23 25 25 0 015.6.7 24.28 24.28 0 00.57-2.4l.61-.13a67.53 67.53 0 00-.59 8.28zm14.39 12.46a22.15 22.15 0 002.71-.37c-.49-1.4-2.39-7.08-2.82-7.86-.94 0-5.2.19-6.19.35a64.13 64.13 0 00-1.88 7.51 16.39 16.39 0 002.31.37l.1.57c-.83-.06-3.27-.11-4-.11s-2.5.05-3.11.11l.08-.57a20.82 20.82 0 002.3-.37c1-1.69 6.3-16.11 6.68-17.13a17.69 17.69 0 00-2.12-.35v-.57c.81.06 3 .11 3.49.11 1.12 0 3.8 0 4.58-.11l-.08.57a15.47 15.47 0 00-2 .35c.33 1.18 1.8 5.38 2.82 8.2a91.17 91.17 0 003.65 8.93c.77.16 1.55.27 2.36.37l.08.57c-.33-.06-3-.11-4.45-.11-.78 0-3.81.05-4.54.11zm-3-17H89c-.83 2.39-2.57 7-2.84 7.91l5.63.11c-.6-1.82-2.29-6.58-2.74-8.07zm15.51 6.15c0-1 0-6.12-.13-6.63-.46-.1-2.28-.27-2.87-.32l-.08-.56h5.79c2.55 0 5.74 0 7.56.75A3.23 3.23 0 01117.17 6c0 1.69-1.72 3.91-3.78 5.06a71.46 71.46 0 007.4 10.65l-1.18.19c-1.88-.86-9-9.09-9.44-9.66-1 .09-2.12.17-2.57.17v.69c0 1.75.05 5.87.13 7.11a28 28 0 002.82.37l.1.57c-.65-.08-3.38-.15-4.65-.15s-3.91.05-4.53.11l.11-.57a24.7 24.7 0 002.84-.37c.11-.78.13-6 .13-8.85zm3 1.84a9.31 9.31 0 003.27-.51 4.5 4.5 0 003-4.31c0-1.72-1.55-3.81-6.19-3.81-.08 1.1-.13 5.9-.13 7.8z"/></g></g></svg>